<svg width="85" height="127" viewBox="0 0 85 127" fill="none" xmlns="http://www.w3.org/2000/svg">
<rect width="85" height="100" rx="10" fill="black"/>
<rect width="85" height="100" rx="10" fill="black" fill-opacity="0.2"/>
<path d="M43.3776 125.393C42.9985 126.087 42.0015 126.087 41.6224 125.393L28.1525 100.729C27.7885 100.063 28.2708 99.25 29.0301 99.25H55.9699C56.7292 99.25 57.2115 100.063 56.8475 100.729L43.3776 125.393Z" fill="black"/>
<path d="M43.3776 125.393C42.9985 126.087 42.0015 126.087 41.6224 125.393L28.1525 100.729C27.7885 100.063 28.2708 99.25 29.0301 99.25H55.9699C56.7292 99.25 57.2115 100.063 56.8475 100.729L43.3776 125.393Z" fill="black" fill-opacity="0.2"/>
<path d="M63.14 65.16H66.14V75H49.76L40.76 56.4L38 58.68V65.16H40.88V75H18.2V65.16H21.2V38.16H18.2V28.32H40.88V38.16H38V46.08L47.3 38.16H43.52V28.32H65.84V38.16H62.84L52.82 46.44L63.14 65.16Z" fill="white"/>
</svg>
